<?xml version="1.0" standalone="no"?>
<!DOCTYPE svg PUBLIC "-//W3C//DTD SVG 20010904//EN"
 "http://www.w3.org/TR/2001/REC-SVG-20010904/DTD/svg10.dtd">
<svg version="1.0" xmlns="http://www.w3.org/2000/svg"
 width="256.000000pt" height="256.000000pt" viewBox="0 0 256.000000 256.000000"
 preserveAspectRatio="xMidYMid meet">
<metadata>
Created by potrace 1.11, written by Peter Selinger 2001-2013
</metadata>
<g transform="translate(0.000000,256.000000) scale(0.100000,-0.100000)"
fill="#000000" stroke="none">
<path d="M1134 2542 c2 -4 -10 -7 -27 -8 -43 -1 -98 -11 -133 -24 -16 -6 -31
-11 -34 -11 -11 2 -116 -32 -126 -40 -6 -5 -14 -6 -17 -2 -4 3 -7 2 -7 -4 0
-6 -13 -13 -29 -16 -16 -3 -36 -13 -45 -22 -9 -9 -20 -13 -26 -10 -5 3 -10 2
-10 -3 0 -4 -15 -16 -32 -25 -80 -41 -172 -112 -261 -200 -87 -87 -105 -109
-154 -184 -21 -32 -40 -60 -43 -63 -7 -7 -66 -127 -89 -183 -29 -67 -71 -225
-74 -275 -1 -23 -5 -42 -8 -42 -4 0 -7 -68 -7 -150 -1 -116 1 -149 11 -143 7
4 7 1 -2 -10 -7 -9 -9 -17 -4 -17 6 0 10 -15 10 -33 0 -17 3 -42 7 -54 4 -12
9 -31 11 -43 2 -12 7 -30 10 -40 3 -10 8 -27 10 -37 19 -83 106 -257 181 -364
63 -90 256 -289 280 -289 4 0 97 -63 104 -71 22 -24 283 -130 353 -143 12 -3
24 -5 27 -6 3 -2 9 -2 14 -1 5 1 16 -1 25 -5 25 -11 76 -15 234 -19 81 -2 147
0 147 4 0 5 11 7 25 5 14 -1 63 7 108 18 45 11 89 21 98 23 31 6 174 69 177
77 2 4 7 6 12 3 4 -3 24 6 44 20 20 14 39 25 42 25 3 0 42 25 86 56 112 79
289 259 310 315 4 10 12 19 18 19 5 0 10 9 10 20 0 11 4 20 8 20 8 0 79 137
102 195 17 43 42 116 45 133 2 9 4 17 5 17 1 0 3 9 5 20 2 11 6 31 9 45 15 58
20 133 20 260 0 142 -5 207 -18 228 -4 6 -5 12 -2 12 7 0 -40 166 -66 229 -35
87 -118 241 -130 241 -4 0 -8 7 -8 15 0 7 -6 18 -13 22 -7 4 -20 20 -29 34 -9
14 -35 44 -57 67 -23 23 -41 47 -41 53 0 7 -3 10 -6 7 -3 -3 -18 6 -33 20 -48
46 -91 82 -97 82 -4 0 -15 10 -25 22 -11 11 -19 18 -19 14 0 -4 -15 4 -32 18
-28 20 -183 107 -191 105 -1 0 -15 5 -32 11 -16 7 -34 13 -40 14 -5 1 -14 4
-20 7 -11 7 -62 22 -85 25 -8 1 -26 6 -40 11 -14 6 -33 9 -42 8 -10 -2 -20 1
-23 5 -3 5 -12 7 -20 3 -8 -3 -15 -1 -15 5 0 5 -67 10 -170 10 -94 1 -169 -2
-166 -6z"/>
</g>
</svg>
